<svg width="83" height="22" viewBox="0 0 83 22" fill="none" xmlns="http://www.w3.org/2000/svg">
    <path d="M0 22V0H9.49609C11.1289 0 12.5576 0.322266 13.7822 0.966797C15.0068 1.61133 15.9593 2.51725 16.6396 3.68457C17.32 4.85189 17.6602 6.21615 17.6602 7.77734C17.6602 9.35286 17.3092 10.7171 16.6074 11.8701C15.9128 13.0231 14.9352 13.9111 13.6748 14.5342C12.4215 15.1572 10.957 15.4688 9.28125 15.4688H3.60938V10.8281H8.07812C8.77995 10.8281 9.37793 10.7064 9.87207 10.4629C10.3734 10.2122 10.7565 9.85775 11.0215 9.39941C11.2936 8.94108 11.4297 8.40039 11.4297 7.77734C11.4297 7.14713 11.2936 6.61003 11.0215 6.16602C10.7565 5.71484 10.3734 5.37109 9.87207 5.13477C9.37793 4.89128 8.77995 4.76953 8.07812 4.76953H5.97266V22H0Z" fill="#FFD369"/>
    <path d="M19.25 4.8125V0H38.3711V4.8125H31.7539V22H25.8672V4.8125H19.25Z" fill="#FFD369"/>
    <path d="M40.6189 22V0H50.115C51.7478 0 53.1765 0.297201 54.4011 0.891602C55.6257 1.486 56.5782 2.3418 57.2585 3.45899C57.9389 4.57617 58.279 5.91536 58.279 7.47656C58.279 9.05208 57.9281 10.3805 57.2263 11.4619C56.5317 12.5433 55.5541 13.3597 54.2937 13.9111C53.0404 14.4626 51.5759 14.7383 49.9001 14.7383H44.2283V10.0977H48.697C49.3988 10.0977 49.9968 10.0117 50.491 9.83984C50.9923 9.66081 51.3754 9.37793 51.6404 8.99121C51.9125 8.60449 52.0486 8.09961 52.0486 7.47656C52.0486 6.84635 51.9125 6.33431 51.6404 5.94043C51.3754 5.53939 50.9923 5.24577 50.491 5.05957C49.9968 4.86621 49.3988 4.76953 48.697 4.76953H46.5916V22H40.6189ZM53.5095 11.9023L59.0095 22H52.5212L47.1501 11.9023H53.5095Z" fill="#FFD369"/>
    <path d="M66.1611 0L70.6729 15.5117H70.8447L75.3564 0H82.1025L74.8408 22H66.6768L59.415 0H66.1611Z" fill="#FFD369"/>
</svg>
